<svg width="577" height="224" fill="none" xmlns="http://www.w3.org/2000/svg"><path opacity=".2" d="M7.9 117.3L.1 153.9h90.3l7.8-36.6H7.9zm293.4-74.7l7.5-35.1H184.6l-36.6 117h38.4c4.2-6.2 9-10.7 14.4-13.5 5.4-2.8 11.8-4.2 19.2-4.2 11.4 0 20.2 3 26.4 9 6.2 5.8 9.3 14.7 9.3 26.7 0 6.4-1.1 12.3-3.3 17.7-2.2 5.4-5.2 10.1-9 14.1-3.8 3.8-8.3 6.8-13.5 9-5 2.2-10.4 3.3-16.2 3.3-10.2 0-18.7-2.4-25.5-7.2-6.6-5-10-12.7-10.2-23.1h-40.8c.8 22.6 7.7 39.1 20.7 49.5 13 10.4 30.6 15.6 52.8 15.6 12.6 0 24.2-1.9 34.8-5.7 10.8-4 20.1-9.6 27.9-16.8 7.8-7.2 13.9-16 18.3-26.4 4.4-10.4 6.6-22.1 6.6-35.1 0-9.8-1.6-18.5-4.8-26.1-3.2-7.8-7.5-14.4-12.9-19.8S269 82 262 79.2c-7-3-14.4-4.5-22.2-4.5-5.4 0-10.2.3-14.4.9-4 .6-7.6 1.5-10.8 2.7-3.2 1.2-6.1 2.6-8.7 4.2-2.4 1.6-4.8 3.4-7.2 5.4l-.6-.6 13.8-44.7h89.4zm169.999 131.7c0 13.8 3.7 25.1 11.1 33.9 7.4 8.8 18.4 13.2 33 13.2 9.8 0 18.5-1.9 26.1-5.7 7.6-4 14-9.3 19.2-15.9 5.2-6.6 9.1-14.2 11.7-22.8 2.8-8.6 4.2-17.5 4.2-26.7 0-15.2-4.2-26.6-12.6-34.2-8.2-7.6-19.8-11.4-34.8-11.4-9.6 0-18.1 2-25.5 6-7.2 3.8-13.2 9-18 15.6-4.8 6.4-8.4 13.8-10.8 22.2-2.4 8.4-3.6 17-3.6 25.8zm30.6 5.4c0-4.6.4-9.9 1.2-15.9 1-6 2.6-11.7 4.8-17.1 2.4-5.4 5.5-10 9.3-13.8 3.8-3.8 8.6-5.7 14.4-5.7 4.6 0 8.1 1.8 10.5 5.4 2.6 3.4 3.9 7.2 3.9 11.4s-.5 9.5-1.5 15.9c-1 6.2-2.6 12.2-4.8 18-2.2 5.8-5.1 10.8-8.7 15-3.6 4.2-8.1 6.3-13.5 6.3-5.8 0-9.9-1.8-12.3-5.4-2.2-3.8-3.3-8.5-3.3-14.1zM522.599.9l-161.4 222.9h25.8L548.099.9h-25.5zm-161.4 77.4c0-4.6.4-9.9 1.2-15.9 1-6 2.6-11.7 4.8-17.1 2.4-5.4 5.5-10 9.3-13.8 3.8-3.8 8.6-5.7 14.4-5.7 4.6 0 8.1 1.8 10.5 5.4 2.6 3.4 3.9 7.2 3.9 11.4s-.5 9.5-1.5 15.9c-1 6.2-2.6 12.2-4.8 18-2.2 5.8-5.1 10.8-8.7 15-3.6 4.2-8.1 6.3-13.5 6.3-5.8 0-9.9-1.8-12.3-5.4-2.2-3.8-3.3-8.5-3.3-14.1zm-30.6-5.4c0 13.8 3.7 25.2 11.1 34.2 7.4 8.8 18.4 13.2 33 13.2 9.8 0 18.5-2 26.1-6 7.6-4 14-9.3 19.2-15.9 5.2-6.6 9.1-14.2 11.7-22.8 2.8-8.6 4.2-17.5 4.2-26.7 0-15.2-4.2-26.6-12.6-34.2-8.2-7.6-19.8-11.4-34.8-11.4-9.6 0-18.1 2-25.5 6-7.2 3.8-13.2 9-18 15.6-4.8 6.4-8.4 13.8-10.8 22.2-2.4 8.4-3.6 17-3.6 25.8z" fill="#FF7B03"/></svg>