<svg width="69" height="44" fill="none" xmlns="http://www.w3.org/2000/svg"><path d="M54.517 29.807c-1.327-2.748-6.073-6.562-10.658-10.247-2.557-2.054-4.974-3.996-6.514-5.527a1.414 1.414 0 0 0-1.473-.327c-.949.341-1.535.604-1.997.809-.704.313-.94.42-1.89.515-.42.041-.797.265-1.03.612-1.992 2.958-4.053 2.706-5.43 2.247-.44-.145-.519-.333-.56-.512-.296-1.228 1.188-4.088 3.111-6 4.577-4.549 6.937-5.688 11.922-3.474 5.655 2.512 11.322 4.48 11.378 4.5a1.409 1.409 0 0 0 1.794-.863 1.4 1.4 0 0 0-.867-1.782c-.057-.02-5.61-1.948-11.153-4.413-6.458-2.868-10.001-.98-15.062 4.052-1.927 1.914-4.543 5.786-3.867 8.627.29 1.208 1.146 2.104 2.42 2.52 3.19 1.047 6.102.045 8.27-2.814.896-.137 1.384-.339 2.116-.666.265-.118.574-.255.986-.42 1.61 1.503 3.785 3.252 6.075 5.09 4.14 3.327 8.835 7.1 9.89 9.282.522 1.077-.039 1.78-.419 2.101-.558.476-1.32.627-1.735.339a1.418 1.418 0 0 0-1.52-.05 1.395 1.395 0 0 0-.68 1.35c.096.89-.723 1.4-1.078 1.576-.901.453-1.842.375-2.194.05a1.428 1.428 0 0 0-1.462-.285 1.4 1.4 0 0 0-.901 1.178c-.085.918-.769 1.8-1.662 2.143-.43.163-1.056.26-1.616-.249a1.431 1.431 0 0 0-1.287-.324c-.46.112-.828.442-.989.881-.053.14-.175.476-1.493.476-.938 0-2.625-.63-3.45-1.173-.988-.646-7.187-5.24-12.541-9.695-.752-.63-2.053-1.979-3.202-3.17-1.02-1.058-1.952-2.018-2.43-2.421a1.408 1.408 0 0 0-1.986.165 1.394 1.394 0 0 0 .166 1.973c.436.366 1.281 1.253 2.214 2.219 1.256 1.304 2.554 2.652 3.427 3.38 5.244 4.362 11.547 9.072 12.803 9.892 1.037.677 3.27 1.628 5 1.628 1.388 0 2.455-.316 3.196-.934.991.383 2.118.386 3.202-.034a5.534 5.534 0 0 0 2.932-2.69c1.11.236 2.38.07 3.535-.506 1.13-.565 1.946-1.43 2.351-2.44 1.121.06 2.276-.335 3.23-1.15 1.617-1.373 2.062-3.511 1.127-5.44z" fill="#000" stroke="#000"/><path d="M28.636 7H16.364C15.61 7 15 7.672 15 8.5s.61 1.5 1.364 1.5h12.272C29.39 10 30 9.328 30 8.5S29.39 7 28.636 7zm29.122 19.671c-.44-.692-1.322-.883-1.973-.411l-4.157 2.971c-.65.466-.824 1.407-.386 2.1.276.433.725.669 1.183.669.27 0 .546-.082.79-.257l4.157-2.972c.65-.466.824-1.407.386-2.1zm-8.282 6.873c-.984-.775-5.386-5.281-8.108-8.119a1.371 1.371 0 0 0-1.944-.041 1.374 1.374 0 0 0-.041 1.944c.707.737 6.94 7.234 8.389 8.378.25.198.552.294.85.294a1.39 1.39 0 0 0 1.082-.525c.47-.594.369-1.46-.228-1.93zm-5.011 2.913c-1.711-1.369-6.011-5.938-6.983-6.995a1.43 1.43 0 0 0-2.106 1.934c.052.055 5.183 5.595 7.303 7.293a1.436 1.436 0 0 0 2.009-.223 1.432 1.432 0 0 0-.223-2.01zm-5.973 3.021c-2.037-1.717-6.205-6.153-7.02-7.024a1.428 1.428 0 1 0-2.088 1.95c1.172 1.255 5.16 5.482 7.266 7.259a1.425 1.425 0 0 0 2.014-.171 1.43 1.43 0 0 0-.172-2.014z" fill="#000" stroke="#000"/><path fill-rule="evenodd" clip-rule="evenodd" d="M2.502 1.002c2.918.17 12.628.907 15.056 3.18.315.292.474.712.437 1.138-.643 7.28-5.526 22.087-5.732 22.714-.19.577-.734.966-1.346.966h-8.5A1.41 1.41 0 0 1 1 27.6V2.4c0-.387.162-.757.445-1.02a1.417 1.417 0 0 1 1.057-.378zM3.833 26.2h6.05c1.054-3.287 4.451-14.182 5.202-20.315C13.3 5.028 8.386 4.255 3.833 3.9v22.3zM49.781 6.932C50.03 6.814 55.956 4 66.64 4c.75 0 1.36.624 1.36 1.4v25.2c0 .773-.61 1.4-1.36 1.4h-8.164c-.612 0-1.149-.42-1.312-1.028-1.012-3.774-6.278-19.247-7.96-22.033a1.447 1.447 0 0 1-.15-1.137c.11-.383.374-.7.727-.87zM59.494 29.2h5.785V6.817c-6.474.157-10.934 1.403-13.01 2.128 2.125 4.659 5.935 15.932 7.225 20.255z" fill="#000" stroke="#000"/></svg>