<svg width="104" height="106" fill="none" xmlns="http://www.w3.org/2000/svg"><path fill-rule="evenodd" clip-rule="evenodd" d="M41.725 97.962C46.018 99.172 52.512 101 65.15 101c19.365 0 28.018-2.275 28.928-7.613.529-3.112.323-5.377-.735-7.298 2.666-1.096 6.854-3.6 6.854-8.53 0-3.463-1.058-5.568-2.146-6.819 2.106-1.42 4.95-4.136 4.95-8.446 0-3.704-1.55-5.97-2.976-7.27 1.445-1.287 2.976-3.652 2.976-7.894 0-6.402-5.27-8.727-8.24-9.07H70.355c-.548 0-.929-.194-1.2-.61-.544-.834-.737-2.816.502-5.66 3.185-7.3 4.735-12.857 4.735-16.988C74.392 8.11 71.08 1 64.946 1c-3.13 0-3.511 1.95-3.88 3.837l-.221 1.084c-.597 2.698-3.92 11.212-9.92 18.973-6.34 8.209-9.873 13.416-15.872 22.702-4.268 6.6-9.489 9.947-15.516 9.947-.848 0-1.537.692-1.537 1.544V95.44a1.54 1.54 0 0 0 1.537 1.544h17.398c1.319 0 2.776.41 4.79.978zm-4.79-4.065H21.078V60.575c6.478-.516 12.038-4.307 16.558-11.293 5.95-9.212 9.448-14.37 15.721-22.492 6.319-8.172 9.849-17.291 10.491-20.196l.237-1.16.25-1.285c.002-.003.144-.062.611-.062 4.397 0 6.371 6.267 6.371 10.712 0 3.696-1.467 8.848-4.477 15.75-1.491 3.421-1.586 6.548-.258 8.589.846 1.297 2.183 2.01 3.773 2.01l24.22-.01c.218.025 5.347.701 5.347 5.992 0 5.347-3.038 6.307-3.142 6.338a1.545 1.545 0 0 0-.157 2.942c.03.013 3.3 1.294 3.3 5.887 0 4.6-5.191 6.786-5.244 6.807-.587.241-.943.822-.937 1.454a1.568 1.568 0 0 0 1.002 1.433c.095.037 2.37.972 2.37 5.575 0 4.615-6.546 6.217-6.61 6.233a1.542 1.542 0 0 0-1.122 1.059 1.55 1.55 0 0 0 .353 1.503c1.264 1.34 1.922 2.896 1.307 6.51-.323 1.884-4.111 5.042-25.893 5.042-12.213 0-18.458-1.759-22.59-2.922l-.004-.001c-2.167-.612-3.88-1.093-5.62-1.093z" fill="#FF7B03" stroke="#FF7B03"/><path fill-rule="evenodd" clip-rule="evenodd" d="M2.551 105H19.45c.86 0 1.551-.69 1.551-1.54V50.54c0-.85-.695-1.54-1.551-1.54H2.55C1.695 49 1 49.69 1 50.54v52.92c0 .85.695 1.54 1.551 1.54zm15.346-3.08H4.104V52.08h13.795v49.84z" fill="#FF7B03" stroke="#FF7B03"/></svg>