<svg width="114" height="114" fill="none" xmlns="http://www.w3.org/2000/svg"><path fill-rule="evenodd" clip-rule="evenodd" d="M49.528 113h14.93c2.31 0 4.19-1.88 4.191-4.193v-9.959a42.39 42.39 0 0 0 9.63-4.092l7.107 7.111c1.576 1.591 4.358 1.586 5.926.005l10.564-10.558a4.205 4.205 0 0 0-.003-5.922l-7.326-7.33a42.395 42.395 0 0 0 3.745-9.407H108.8a4.2 4.2 0 0 0 4.2-4.19V49.537a4.2 4.2 0 0 0-4.2-4.192H97.958a42.676 42.676 0 0 0-3.846-8.981l7.759-7.761c1.63-1.625 1.631-4.28.002-5.92L91.311 12.117c-1.575-1.576-4.344-1.575-5.92.002l-7.896 7.896a42.733 42.733 0 0 0-8.846-3.647V5.184A4.192 4.192 0 0 0 64.458 1h-14.93a4.189 4.189 0 0 0-4.189 4.184v11.104a42.718 42.718 0 0 0-8.946 3.62L28.6 12.113c-1.583-1.57-4.326-1.572-5.923.007l-10.55 10.562a4.159 4.159 0 0 0-1.23 2.973 4.132 4.132 0 0 0 1.23 2.947l7.564 7.565a42.57 42.57 0 0 0-3.961 9.179H5.182A4.192 4.192 0 0 0 1 49.538v14.928a4.19 4.19 0 0 0 4.182 4.19h10.213a42.543 42.543 0 0 0 3.853 9.61l-7.122 7.125a4.157 4.157 0 0 0-1.23 2.962 4.156 4.156 0 0 0 1.23 2.965l10.549 10.554c1.584 1.587 4.343 1.588 5.93.001l6.996-6.996a42.654 42.654 0 0 0 9.737 4.053v9.879a4.196 4.196 0 0 0 4.19 4.191zM36.24 91.19l-1.177-.723-8.932 8.934a.688.688 0 0 1-.98 0L14.6 88.844a.683.683 0 0 1 .001-.975l9.028-9.03-.693-1.17a39.048 39.048 0 0 1-4.464-11.156l-.313-1.357H5.182a.687.687 0 0 1-.682-.69V49.537a.69.69 0 0 1 .682-.694h13.22l.343-1.303a39.209 39.209 0 0 1 4.632-10.721l.735-1.18-9.52-9.52a.662.662 0 0 1-.198-.475c0-.106.026-.31.205-.489l10.543-10.557a.702.702 0 0 1 .496-.203c.109 0 .318.026.49.197l9.683 9.684 1.166-.683A39.109 39.109 0 0 1 47.5 19.339l1.337-.325V5.184c0-.377.31-.684.69-.684h14.93c.388 0 .69.3.69.684v13.89l1.322.333a39.197 39.197 0 0 1 10.424 4.296l1.17.693 9.8-9.8a.683.683 0 0 1 .487-.199c.107 0 .315.027.485.197l10.557 10.56c.27.27.27.706.004.973l-9.699 9.7.725 1.178a39.175 39.175 0 0 1 4.515 10.537l.344 1.304h13.52c.386 0 .7.31.7.692v14.93c0 .38-.314.69-.7.69H95.534l-.315 1.355a38.98 38.98 0 0 1-4.357 10.964l-.684 1.167 9.218 9.222c.27.271.269.712.003.98l-10.566 10.56a.679.679 0 0 1-.966-.006l-9.061-9.065-1.18.736a39.128 39.128 0 0 1-11.153 4.74l-1.324.332v12.667a.684.684 0 0 1-.691.691h-14.93c-.38 0-.69-.31-.69-.691V96.201l-1.337-.324a39.127 39.127 0 0 1-11.26-4.688zm20.758-8.523c-14.151 0-25.664-11.513-25.664-25.665s11.513-25.666 25.664-25.666c14.152 0 25.664 11.514 25.664 25.666 0 14.151-11.513 25.664-25.664 25.664zM34.833 57.002c0-12.224 9.942-22.166 22.165-22.166 12.222 0 22.164 9.943 22.164 22.166 0 12.221-9.942 22.164-22.164 22.164-12.223 0-22.165-9.943-22.165-22.164z" fill="#FF7B03" stroke="#FF7B03"/></svg>