<svg width="87" height="99" fill="none" xmlns="http://www.w3.org/2000/svg"><path d="M70.39 33.603a2.1 2.1 0 0 0-2.945 0L39.752 61.021 24.555 45.978a2.1 2.1 0 0 0-2.946 0 2.05 2.05 0 0 0 0 2.917l16.668 16.502a2.104 2.104 0 0 0 2.946 0L70.39 36.52a2.05 2.05 0 0 0 0-2.917z" fill="#FF7B03"/><path fill-rule="evenodd" clip-rule="evenodd" d="M44.093.087L85.52 12.462A2.065 2.065 0 0 1 87 14.438v45.374c0 18.241-27.931 34.46-42.887 39.097A2.06 2.06 0 0 1 43.5 99c-.207 0-.414-.029-.613-.09C27.931 94.276 0 78.053 0 59.812V14.437c0-.911.6-1.716 1.475-1.975L42.903.087c.39-.116.8-.116 1.19 0zM43.5 94.776c16.31-5.251 39.357-20.48 39.357-34.963v-43.84L43.5 4.215 4.143 15.972v43.84c0 14.483 23.047 29.713 39.357 34.964z" fill="#FF7B03"/></svg>