<svg viewBox="0 0 66 66" fill="none" xmlns="http://www.w3.org/2000/svg"><path clip-rule="evenodd" d="M63.063 32.8a4.71 4.71 0 0 0-4.817-4.323H51.18a2.956 2.956 0 0 1-2.073-5.04l5.017-5.006a4.71 4.71 0 0 0 .354-6.465 4.534 4.534 0 0 0-6.548-.153l-5.312 5.252a2.932 2.932 0 0 1-5.017-2.073V7.82a4.71 4.71 0 0 0-4.322-4.817 4.534 4.534 0 0 0-4.71 4.523v7.443a2.944 2.944 0 0 1-5.053 2.096l-5.053-5.076a4.71 4.71 0 0 0-6.465-.353 4.534 4.534 0 0 0-.153 6.607l5.3 5.3a2.921 2.921 0 0 1-2.062 4.993H7.876A4.71 4.71 0 0 0 3 32.811v.4a4.71 4.71 0 0 0 4.817 4.323h7.207a2.92 2.92 0 0 1 2.109 4.993l-5.3 5.3a4.534 4.534 0 0 0 .153 6.548 4.71 4.71 0 0 0 6.465-.353l5.053-5.053a2.944 2.944 0 0 1 5.029 2.085v7.443a4.534 4.534 0 0 0 4.71 4.522 4.711 4.711 0 0 0 4.323-4.816v-7.16a2.932 2.932 0 0 1 5.017-2.074l5.276 5.277a4.534 4.534 0 0 0 6.548-.154 4.71 4.71 0 0 0-.353-6.465l-5.017-5.017a2.956 2.956 0 0 1 2.072-5.04h7.067a4.71 4.71 0 0 0 4.887-4.347v-.424z" stroke="#F15F22" stroke-width="4.1"/></svg>