<svg width="90" height="90" fill="none" xmlns="http://www.w3.org/2000/svg"><path clip-rule="evenodd" d="M45 89c24.3 0 44-19.7 44-44S69.3 1 45 1 1 20.7 1 45s19.7 44 44 44z" stroke="#FF7B03" stroke-width="2"/><path d="M11.5 43.96v2.4h8.67v-2.4H11.5zm11.48-4.2h2.55c-.02-.64.04-1.27.18-1.89.16-.64.41-1.21.75-1.71s.77-.9 1.29-1.2c.54-.32 1.18-.48 1.92-.48.56 0 1.09.09 1.59.27.5.18.93.44 1.29.78.38.34.68.75.9 1.23.22.46.33.98.33 1.56 0 .74-.12 1.39-.36 1.95-.22.56-.56 1.08-1.02 1.56-.44.48-1 .96-1.68 1.44-.68.46-1.47.97-2.37 1.53-.74.44-1.45.91-2.13 1.41-.68.5-1.29 1.08-1.83 1.74-.54.66-.99 1.44-1.35 2.34-.34.88-.56 1.95-.66 3.21h13.89v-2.25H25.35c.12-.66.37-1.24.75-1.74.4-.52.87-1 1.41-1.44.56-.44 1.17-.85 1.83-1.23l1.98-1.2c.66-.42 1.3-.86 1.92-1.32.62-.46 1.17-.97 1.65-1.53.48-.58.86-1.23 1.14-1.95.3-.72.45-1.55.45-2.49 0-1-.18-1.88-.54-2.64a5.16 5.16 0 0 0-1.41-1.89c-.6-.52-1.31-.91-2.13-1.17-.8-.28-1.66-.42-2.58-.42-1.12 0-2.12.19-3 .57-.88.38-1.62.91-2.22 1.59-.58.66-1.01 1.45-1.29 2.37-.28.92-.39 1.92-.33 3zm19.31 3.27v-1.71c.02-.64.07-1.27.15-1.89.1-.64.23-1.26.39-1.86.18-.6.43-1.12.75-1.56.34-.46.76-.83 1.26-1.11.5-.28 1.11-.42 1.83-.42s1.33.14 1.83.42c.5.28.91.65 1.23 1.11.34.44.59.96.75 1.56.18.6.31 1.22.39 1.86.1.62.15 1.25.15 1.89.02.62.03 1.19.03 1.71 0 .8-.03 1.7-.09 2.7-.04.98-.2 1.91-.48 2.79-.26.86-.69 1.59-1.29 2.19-.6.6-1.44.9-2.52.9s-1.92-.3-2.52-.9c-.6-.6-1.04-1.33-1.32-2.19-.26-.88-.42-1.81-.48-2.79-.04-1-.06-1.9-.06-2.7zm-2.7.03c0 .78.02 1.59.06 2.43.04.84.14 1.66.3 2.46.16.8.39 1.56.69 2.28.3.7.71 1.32 1.23 1.86s1.17.97 1.95 1.29c.8.3 1.75.45 2.85.45 1.12 0 2.07-.15 2.85-.45.78-.32 1.43-.75 1.95-1.29s.93-1.16 1.23-1.86c.3-.72.53-1.48.69-2.28.16-.8.26-1.62.3-2.46.04-.84.06-1.65.06-2.43 0-.78-.02-1.59-.06-2.43-.04-.84-.14-1.66-.3-2.46-.16-.8-.39-1.56-.69-2.28A6.05 6.05 0 0 0 51.47 34c-.52-.54-1.18-.97-1.98-1.29-.78-.32-1.72-.48-2.82-.48-1.1 0-2.05.16-2.85.48-.78.32-1.43.75-1.95 1.29a6.05 6.05 0 0 0-1.23 1.89c-.3.72-.53 1.48-.69 2.28-.16.8-.26 1.62-.3 2.46-.04.84-.06 1.65-.06 2.43zm20.42-4.8c0-.46.03-.94.09-1.44.06-.52.18-.99.36-1.41.2-.44.47-.8.81-1.08.34-.3.79-.45 1.35-.45.58 0 1.03.15 1.35.45.34.28.6.64.78 1.08.18.42.29.89.33 1.41.06.5.09.97.09 1.41 0 .46-.03.95-.09 1.47s-.19 1-.39 1.44c-.18.42-.44.77-.78 1.05s-.8.42-1.38.42c-.56 0-1.01-.14-1.35-.42-.32-.3-.57-.66-.75-1.08-.18-.44-.3-.91-.36-1.41-.04-.52-.06-1-.06-1.44zm-2.25.06c0 .82.08 1.59.24 2.31.18.72.46 1.35.84 1.89.38.54.88.97 1.5 1.29.62.3 1.38.45 2.28.45.88 0 1.62-.17 2.22-.51.6-.34 1.09-.78 1.47-1.32.4-.56.68-1.2.84-1.92.18-.74.27-1.5.27-2.28 0-.82-.08-1.59-.24-2.31-.14-.74-.4-1.38-.78-1.92-.36-.54-.85-.97-1.47-1.29-.6-.32-1.37-.48-2.31-.48-.92 0-1.69.17-2.31.51-.62.32-1.12.76-1.5 1.32-.38.56-.65 1.21-.81 1.95-.16.72-.24 1.49-.24 2.31zm17.07 9.54c0-.46.03-.94.09-1.44.06-.52.18-.99.36-1.41.2-.44.47-.8.81-1.08.34-.3.79-.45 1.35-.45.58 0 1.03.15 1.35.45.34.28.6.64.78 1.08.18.42.29.89.33 1.41.06.5.09.97.09 1.41 0 .46-.03.95-.09 1.47s-.19 1-.39 1.44c-.18.42-.44.77-.78 1.05s-.8.42-1.38.42c-.56 0-1.01-.14-1.35-.42-.32-.3-.57-.66-.75-1.08-.18-.44-.3-.91-.36-1.41-.04-.52-.06-1-.06-1.44zm-2.25.06c0 .82.08 1.59.24 2.31.18.72.46 1.35.84 1.89.38.52.88.94 1.5 1.26.62.3 1.38.45 2.28.45.88 0 1.62-.16 2.22-.48.6-.34 1.09-.78 1.47-1.32.4-.56.68-1.2.84-1.92.18-.74.27-1.5.27-2.28 0-.82-.08-1.59-.24-2.31-.14-.74-.4-1.38-.78-1.92-.36-.54-.85-.97-1.47-1.29-.6-.32-1.37-.48-2.31-.48-.92 0-1.69.17-2.31.51-.62.32-1.12.76-1.5 1.32-.38.56-.65 1.21-.81 1.95-.16.72-.24 1.49-.24 2.31zm4.2-16.08L60.64 54.13h2.58l16.11-22.29h-2.55z" fill="#FF7B03"/></svg>