<svg width="86" height="92" fill="none" xmlns="http://www.w3.org/2000/svg"><path fill-rule="evenodd" clip-rule="evenodd" d="M36.862 50.49a16.654 16.654 0 0 0 6.139 1.163 16.67 16.67 0 0 0 6.138-1.162c1.509-.598 2.756-1.352 3.707-2.24 2.647-2.471 5.4-7.78 6.391-9.798 1.776-.1 5.235-1.06 6.727-6.77.753-2.88.582-5.192-.506-6.873a5.039 5.039 0 0 0-1.977-1.778c.053-2.732-.28-10.288-5.08-15.981C52.52.08 43.385 0 43 0c-.386 0-9.521.08-15.4 7.05-4.8 5.693-5.135 13.25-5.082 15.982a5.04 5.04 0 0 0-1.976 1.778c-1.089 1.681-1.26 3.994-.507 6.872 1.493 5.711 4.952 6.671 6.728 6.771.992 2.017 3.744 7.327 6.39 9.797.951.889 2.199 1.643 3.708 2.24zM84.67 92H1.331A1.331 1.331 0 0 1 0 90.668V74.741a14.87 14.87 0 0 1 9.387-13.872l19.718-7.892a1.333 1.333 0 0 1 1.746.784l5.844 16.163 1.952-5.616-1.694-4.143a1.332 1.332 0 0 1 1.232-1.835h9.631a1.33 1.33 0 0 1 1.232 1.835l-1.694 4.143 1.952 5.616L55.15 53.76a1.333 1.333 0 0 1 1.746-.784l19.718 7.891A14.869 14.869 0 0 1 86 74.74v15.928A1.33 1.33 0 0 1 84.67 92zM2.662 89.336h80.676V74.741c0-5.05-3.028-9.524-7.713-11.399l-18.44-7.38-6.651 18.398a1.33 1.33 0 0 1-1.252.88h-.008a1.332 1.332 0 0 1-1.25-.895l-3.35-9.638a1.33 1.33 0 0 1 .026-.941l1.133-2.774h-5.666l1.134 2.774c.123.3.132.634.025.941l-3.35 9.638c-.185.532-.685.89-1.249.894a1.302 1.302 0 0 1-1.26-.879l-6.65-18.398-18.44 7.38a12.218 12.218 0 0 0-7.714 11.399v14.595zm54.754-2.425H72.77a1.33 1.33 0 0 0 1.33-1.331v-9.456a1.33 1.33 0 0 0-1.33-1.332H57.416a1.33 1.33 0 0 0-1.33 1.332v9.456a1.33 1.33 0 0 0 1.33 1.331zm1.332-2.663h12.69v-6.793h-12.69v6.793zM27.592 35.77c.51 0 .985.294 1.206.77l.004.008c.125.265 3.356 7.128 6.17 9.756.706.66 1.673 1.236 2.872 1.711a14.109 14.109 0 0 0 10.314 0c1.2-.475 2.166-1.052 2.873-1.711 2.814-2.629 6.046-9.493 6.17-9.756l.004-.008c.26-.559.869-.866 1.474-.743.321.053 3.35.42 4.71-4.789.548-2.094.492-3.737-.164-4.75-.532-.82-1.326-.998-1.334-1a1.332 1.332 0 0 1-1.108-1.427c.005-.051.227-2.938-.512-6.533-3.494.328-13.643 1.033-18.735-1.222-3.444-1.525-5.815-3.334-7.249-4.65-.518 1.48-1.374 3.367-2.683 4.781-2.241 2.422-4.953 3.702-6.323 4.237-.168 1.998-.064 3.352-.06 3.386a1.334 1.334 0 0 1-1.108 1.428c-.011.003-.825.18-1.361 1.043-.63 1.015-.678 2.643-.139 4.706 1.41 5.398 4.68 4.796 4.712 4.79.089-.018.178-.027.267-.027zm2.044-27.001C34.7 2.763 42.92 2.664 43 2.664c.082 0 8.275.07 13.364 6.105 1.535 1.82 2.546 3.897 3.21 5.915C55.93 15 46.9 15.54 42.613 13.64c-5.428-2.404-7.88-5.588-7.902-5.617a1.33 1.33 0 1 0-2.373.54c-.007.037-.76 3.75-2.687 5.834-1.272 1.373-2.752 2.318-3.923 2.92.563-2.75 1.69-5.918 3.909-8.55z" fill="#FF7B03"/></svg>