<svg width="85" height="85" fill="none" xmlns="http://www.w3.org/2000/svg"><path fill-rule="evenodd" clip-rule="evenodd" d="M78.685 47.014c2.005.134 3.992 1.236 5.184 2.877 1.894 2.605 1.383 6.005-1.333 8.875-3.69 3.897-10.972 12.581-11.046 12.669-.11.132-.248.24-.405.317L44.44 84.87a1.264 1.264 0 0 1-1.043.034l-25.08-10.399H1.248A1.24 1.24 0 0 1 0 73.275c0-.679.56-1.23 1.249-1.23h17.32c.166 0 .33.033.485.097l24.783 10.275 25.895-12.749c1.144-1.361 7.507-8.914 10.976-12.58.706-.745 2.874-3.366 1.13-5.766-1.135-1.561-3.94-2.722-5.512-1.084-3.759 3.918-12.641 14.415-12.83 14.638l-.003.003a1.254 1.254 0 0 1-.83.436l-3.654.38a6.472 6.472 0 0 1-1.204 3.457c-1.622 2.257-4.624 3.256-7.307 2.44l-13.61-3.69a1.227 1.227 0 0 1-.872-1.512 1.252 1.252 0 0 1 1.536-.86l13.628 3.697c1.094.294 2.271.227 3.27-.33a4.061 4.061 0 0 0 1.88-2.297 3.936 3.936 0 0 0-.28-3.062 4.037 4.037 0 0 0-2.399-1.97 1.324 1.324 0 0 1-.123-.045c-.22-.093-22.002-9.319-30.963-9.319-7.232 0-12.379 2.019-15.423 3.712-3.303 1.837-4.92 3.701-4.936 3.72a1.265 1.265 0 0 1-1.758.15 1.216 1.216 0 0 1-.159-1.728c.288-.34 7.21-8.313 22.276-8.313 9.328 0 30.37 8.848 31.896 9.495.471.15.917.35 1.334.593 3.193-3.722 7.26-8.398 9.556-10.792 1.055-1.1 2.537-1.645 4.175-1.536 1.542.104 3.071.781 4.239 1.834.264-.284.514-.548.745-.79 1.055-1.1 2.539-1.645 4.175-1.535zm-20.04 16.245l3.253-.337c1.347-1.589 6.45-7.589 10.197-11.754-.755-.688-1.76-1.143-2.738-1.209-.62-.04-1.506.06-2.19.771-2.365 2.465-6.785 7.568-9.506 10.739.42.542.753 1.147.983 1.79z" fill="#FF7B03"/><path d="M71.75 25.416H60.905V11.204c0-.692-.564-1.254-1.26-1.254-.698 0-1.262.562-1.262 1.254v15.468c0 .692.564 1.254 1.261 1.254h8.698L43.5 49.098 18.658 27.925h8.699c.696 0 1.26-.562 1.26-1.254V2.508h29.765v2.926c0 .693.565 1.255 1.261 1.255.697 0 1.262-.562 1.262-1.255v-4.18C60.905.562 60.34 0 59.643 0H27.357c-.697 0-1.262.562-1.262 1.254v24.163H15.25c-1.143 0-1.691 1.464-.82 2.206l28.25 24.079a1.278 1.278 0 0 0 1.642 0l28.25-24.08c.871-.741.324-2.206-.82-2.206z" fill="#FF7B03"/><path d="M51.624 7.376a1.285 1.285 0 0 0-1.817 0l-16.44 16.432c-.792.791-.216 2.192.908 2.192.328 0 .657-.125.908-.376l16.44-16.432a1.283 1.283 0 0 0 0-1.816z" fill="#FF7B03"/><path fill-rule="evenodd" clip-rule="evenodd" d="M46 22.5c0-1.93 1.57-3.5 3.5-3.5s3.5 1.57 3.5 3.5-1.57 3.5-3.5 3.5-3.5-1.57-3.5-3.5zm2.234 0c0 .698.568 1.266 1.266 1.266a1.267 1.267 0 0 0 0-2.532c-.698 0-1.266.568-1.266 1.266zM32 10.5C32 8.57 33.57 7 35.5 7S39 8.57 39 10.5 37.43 14 35.5 14 32 12.43 32 10.5zm2.234 0c0 .698.568 1.266 1.266 1.266a1.267 1.267 0 0 0 0-2.532c-.698 0-1.266.568-1.266 1.266z" fill="#FF7B03"/></svg>