<svg width="577" height="224" viewBox="0 0 577 224" fill="none" xmlns="http://www.w3.org/2000/svg">
<path opacity="0.2" d="M15.9 192.8L8.1 229.4H98.4L106.2 192.8H15.9ZM309.3 118.1L316.8 83H192.6L156 200H194.4C198.6 193.8 203.4 189.3 208.8 186.5C214.2 183.7 220.6 182.3 228 182.3C239.4 182.3 248.2 185.3 254.4 191.3C260.6 197.1 263.7 206 263.7 218C263.7 224.4 262.6 230.3 260.4 235.7C258.2 241.1 255.2 245.8 251.4 249.8C247.6 253.6 243.1 256.6 237.9 258.8C232.9 261 227.5 262.1 221.7 262.1C211.5 262.1 203 259.7 196.2 254.9C189.6 249.9 186.2 242.2 186 231.8H145.2C146 254.4 152.9 270.9 165.9 281.3C178.9 291.7 196.5 296.9 218.7 296.9C231.3 296.9 242.9 295 253.5 291.2C264.3 287.2 273.6 281.6 281.4 274.4C289.2 267.2 295.3 258.4 299.7 248C304.1 237.6 306.3 225.9 306.3 212.9C306.3 203.1 304.7 194.4 301.5 186.8C298.3 179 294 172.4 288.6 167C283.2 161.6 277 157.5 270 154.7C263 151.7 255.6 150.2 247.8 150.2C242.4 150.2 237.6 150.5 233.4 151.1C229.4 151.7 225.8 152.6 222.6 153.8C219.4 155 216.5 156.4 213.9 158C211.5 159.6 209.1 161.4 206.7 163.4L206.1 162.8L219.9 118.1H309.3ZM479.299 249.8C479.299 263.6 482.999 274.9 490.399 283.7C497.799 292.5 508.799 296.9 523.399 296.9C533.199 296.9 541.899 295 549.499 291.2C557.099 287.2 563.499 281.9 568.699 275.3C573.899 268.7 577.799 261.1 580.399 252.5C583.199 243.9 584.599 235 584.599 225.8C584.599 210.6 580.399 199.2 571.999 191.6C563.799 184 552.199 180.2 537.199 180.2C527.599 180.2 519.099 182.2 511.699 186.2C504.499 190 498.499 195.2 493.699 201.8C488.899 208.2 485.299 215.6 482.899 224C480.499 232.4 479.299 241 479.299 249.8ZM509.899 255.2C509.899 250.6 510.299 245.3 511.099 239.3C512.099 233.3 513.699 227.6 515.899 222.2C518.299 216.8 521.399 212.2 525.199 208.4C528.999 204.6 533.799 202.7 539.599 202.7C544.199 202.7 547.699 204.5 550.099 208.1C552.699 211.5 553.999 215.3 553.999 219.5C553.999 223.7 553.499 229 552.499 235.4C551.499 241.6 549.899 247.6 547.699 253.4C545.499 259.2 542.599 264.2 538.999 268.4C535.399 272.6 530.899 274.7 525.499 274.7C519.699 274.7 515.599 272.9 513.199 269.3C510.999 265.5 509.899 260.8 509.899 255.2ZM530.599 76.4L369.199 299.3H394.999L556.099 76.4H530.599ZM369.199 153.8C369.199 149.2 369.599 143.9 370.399 137.9C371.399 131.9 372.999 126.2 375.199 120.8C377.599 115.4 380.699 110.8 384.499 107C388.299 103.2 393.099 101.3 398.899 101.3C403.499 101.3 406.999 103.1 409.399 106.7C411.999 110.1 413.299 113.9 413.299 118.1C413.299 122.3 412.799 127.6 411.799 134C410.799 140.2 409.199 146.2 406.999 152C404.799 157.8 401.899 162.8 398.299 167C394.699 171.2 390.199 173.3 384.799 173.3C378.999 173.3 374.899 171.5 372.499 167.9C370.299 164.1 369.199 159.4 369.199 153.8ZM338.599 148.4C338.599 162.2 342.299 173.6 349.699 182.6C357.099 191.4 368.099 195.8 382.699 195.8C392.499 195.8 401.199 193.8 408.799 189.8C416.399 185.8 422.799 180.5 427.999 173.9C433.199 167.3 437.099 159.7 439.699 151.1C442.499 142.5 443.899 133.6 443.899 124.4C443.899 109.2 439.699 97.8 431.299 90.2C423.099 82.6 411.499 78.8 396.499 78.8C386.899 78.8 378.399 80.8 370.999 84.8C363.799 88.6 357.799 93.8 352.999 100.4C348.199 106.8 344.599 114.2 342.199 122.6C339.799 131 338.599 139.6 338.599 148.4Z" transform="translate(-8 -75.5)" fill="#FF7B03"/>
</svg>
