<svg width="69" height="44" viewBox="0 0 69 44" fill="none" xmlns="http://www.w3.org/2000/svg">
<path d="M43.5165 25.8068C42.1899 23.0591 37.4443 19.2451 32.8593 15.5599C30.302 13.506 27.8855 11.5641 26.345 10.0335C25.9591 9.64736 25.3818 9.52419 24.8721 9.70612C23.923 10.0475 23.3371 10.3105 22.8753 10.5147C22.1712 10.8281 21.9347 10.9345 20.9854 11.0296C20.5658 11.0715 20.1884 11.2954 19.9546 11.6424C17.9634 14.6 15.9018 14.3482 14.5246 13.8893C14.0852 13.7439 14.0064 13.5563 13.9642 13.3773C13.6685 12.1489 15.1527 9.28915 17.0763 7.37795C21.6529 2.82812 24.013 1.68921 28.998 3.90262C34.6533 6.41533 40.3199 8.38254 40.3763 8.40208C41.117 8.65667 41.914 8.27052 42.1703 7.5402C42.4237 6.80988 42.0379 6.0124 41.3028 5.75781C41.2464 5.73826 35.6925 3.81028 30.1499 1.34504C23.6919 -1.52313 20.1488 0.365634 15.0878 5.39684C13.1614 7.31079 10.5449 11.1834 11.2208 14.0237C11.5109 15.2325 12.3672 16.1279 13.6401 16.5448C16.8311 17.5913 19.7432 16.5895 21.9118 13.7299C22.8074 13.5928 23.2947 13.3913 24.0269 13.0639C24.2916 12.9464 24.6014 12.8093 25.0127 12.6442C26.6237 14.1468 28.7979 15.8956 31.0876 17.734C35.2277 21.061 39.9227 24.8331 40.9788 27.0156C41.4999 28.0929 40.9393 28.7953 40.5591 29.117C40.0015 29.5928 39.2383 29.7439 38.8243 29.4556C38.368 29.145 37.7738 29.1254 37.3034 29.4052C36.8303 29.685 36.5656 30.2138 36.6247 30.7567C36.7204 31.6465 35.9009 32.1558 35.546 32.3321C34.6447 32.7854 33.7041 32.7071 33.352 32.3825C32.9576 32.0188 32.3916 31.9124 31.8903 32.0971C31.389 32.2845 31.0397 32.7435 30.989 33.2751C30.9045 34.1928 30.2201 35.0742 29.3273 35.4184C28.8964 35.5807 28.2711 35.6787 27.7107 35.1693C27.3615 34.856 26.877 34.7356 26.4237 34.8447C25.9646 34.9566 25.5957 35.2869 25.4351 35.7261C25.3817 35.8661 25.2605 36.2019 23.9424 36.2019C23.0045 36.2019 21.3175 35.5723 20.4924 35.0294C19.5038 34.383 13.3049 29.7885 7.95102 25.3337C7.19904 24.7041 5.89787 23.3554 4.74879 22.1633C3.72921 21.1056 2.79703 20.1459 2.3182 19.743C1.71831 19.2393 0.831146 19.3148 0.332645 19.9081C-0.168628 20.4985 -0.0954899 21.3828 0.498856 21.8808C0.93544 22.2474 1.78036 23.1343 2.71254 24.0997C3.96869 25.4036 5.26696 26.7524 6.14013 27.48C11.3843 31.8424 17.6874 36.5517 18.9434 37.3715C19.9799 38.0487 22.2132 39 23.9425 39C25.331 39 26.3985 38.6838 27.1391 38.0655C28.1304 38.4488 29.257 38.4516 30.3413 38.0319C31.6228 37.5394 32.6761 36.546 33.2732 35.3429C34.3828 35.5779 35.6531 35.4128 36.8077 34.8364C37.9371 34.2713 38.7538 33.4066 39.1593 32.3964C40.2803 32.4552 41.4349 32.0606 42.3897 31.2463C44.0065 29.8725 44.4514 27.7348 43.5165 25.8068Z" transform="translate(11 4)" fill="black" stroke="black"/>
<path d="M13.6363 0H1.36367C0.610948 0 0 0.672026 0 1.5C0 2.32797 0.610948 3 1.36367 3H13.6363C14.3891 3 15 2.32797 15 1.5C15 0.672026 14.3891 0 13.6363 0Z" transform="translate(15 7)" fill="black" stroke="black"/>
<path d="M6.75826 0.671419C6.31752 -0.0214611 5.43618 -0.212092 4.78513 0.259946L0.62842 3.23132C-0.0226275 3.69726 -0.196151 4.63835 0.24179 5.33123C0.517535 5.76398 0.966805 6 1.4246 6C1.69475 6 1.9705 5.9183 2.21506 5.74285L6.37177 2.77148C7.02268 2.3054 7.19607 1.36444 6.75826 0.671419Z" transform="translate(51 26)" fill="black" stroke="black"/>
<path d="M10.4763 8.54449C9.49201 7.76912 5.09002 3.26266 2.36802 0.425138C1.84283 -0.124813 0.971324 -0.144017 0.424089 0.383895C-0.125853 0.9091 -0.14235 1.78062 0.382846 2.32786C1.08951 3.0647 7.32253 9.5619 8.77155 10.7058C9.02172 10.9037 9.3242 11 9.62115 11C10.0253 11 10.4295 10.8185 10.7044 10.4748C11.1747 9.88076 11.073 9.01466 10.4763 8.54449Z" transform="translate(39 25)" fill="black" stroke="black"/>
<path d="M9.46509 7.45687C7.7536 6.08813 3.45364 1.51916 2.48211 0.461966C1.94492 -0.120942 1.04491 -0.155231 0.462046 0.376245C-0.118005 0.910533 -0.157916 1.81637 0.376331 2.39647C0.42776 2.45071 5.55929 7.99129 7.67927 9.68859C7.94217 9.89713 8.25932 10 8.5707 10C8.9879 10 9.40495 9.81422 9.68781 9.46571C10.1795 8.84838 10.0794 7.9483 9.46509 7.45687Z" transform="translate(35 29)" fill="black" stroke="black"/>
<path d="M9.49236 7.47785C7.45531 5.7612 3.28705 1.32516 2.47282 0.453919C1.93286 -0.123029 1.02716 -0.154494 0.452909 0.385365C-0.124152 0.925224 -0.152811 1.8278 0.384342 2.40488C1.55574 3.6588 5.54401 7.88635 7.64963 9.66299C7.91814 9.8886 8.24383 10 8.56952 10C8.97517 10 9.38094 9.8258 9.66378 9.49161C10.1723 8.886 10.0951 7.98624 9.49236 7.47785Z" transform="translate(29 32)" fill="black" stroke="black"/>
<path fill-rule="evenodd" clip-rule="evenodd" d="M1.50171 0.00189209C4.42017 0.172668 14.1301 0.909119 16.5583 3.18286C16.873 3.474 17.0317 3.89398 16.9946 4.31964C16.3516 11.5999 11.4695 26.4067 11.2627 27.034C11.073 27.6108 10.5291 28 9.91699 28H1.41675C0.634766 28 0 27.3727 0 26.5999V1.39911C0 1.0127 0.161621 0.643066 0.444824 0.379944C0.728271 0.113892 1.09937 -0.0176392 1.50171 0.00189209ZM2.83325 25.2H8.88257C9.93677 21.9126 13.334 11.0175 14.0847 4.88525C12.2998 4.02844 7.38647 3.25562 2.83325 2.90002V25.2Z" transform="translate(1 1)" fill="black" stroke="black"/>
<path fill-rule="evenodd" clip-rule="evenodd" d="M0.781494 2.93158C1.02905 2.81403 6.95581 0 17.6394 0C18.3904 0 19 0.624329 19 1.3999V26.6C19 27.3727 18.3904 28 17.6394 28H9.47583C8.86353 28 8.32739 27.58 8.16406 26.9724C7.15186 23.1981 1.88623 7.72528 0.20459 4.93921C0.000488281 4.59772 -0.0539551 4.1861 0.0549316 3.80243C0.163818 3.41882 0.427734 3.10236 0.781494 2.93158ZM10.4937 25.2001H16.2788V2.81689C9.80518 2.97363 5.34497 4.21973 3.2688 4.94482C5.39404 9.604 9.20386 20.8768 10.4937 25.2001Z" transform="translate(49 4)" fill="black" stroke="black"/>
</svg>
