<svg width="87" height="99" viewBox="0 0 87 99" fill="none" xmlns="http://www.w3.org/2000/svg">
<path d="M49.3906 0.603337C48.5781 -0.201112 47.2571 -0.201112 46.4446 0.603337L18.7519 28.0205L3.55541 12.9795C2.74288 12.175 1.42193 12.175 0.609399 12.9795C-0.203133 13.7839 -0.203133 15.0917 0.609399 15.8962L17.2767 32.3976C17.6851 32.7977 18.2183 33 18.7517 33C19.2851 33 19.8184 32.7979 20.2227 32.3976L49.3904 3.52004C50.2032 2.7154 50.2032 1.40779 49.3906 0.603337Z" transform="translate(21 33)" fill="#FF7B03"/>
<path fill-rule="evenodd" clip-rule="evenodd" d="M44.0925 0.0866699L85.521 12.4617C86.3994 12.7256 87 13.5259 87 14.4375V59.8125C87 78.0532 59.0688 94.2727 44.113 98.9094C43.9143 98.9712 43.707 99 43.5 99C43.293 99 43.0857 98.9712 42.887 98.9094C27.9312 94.2771 0 78.0535 0 59.8125V14.4375C0 13.5259 0.600586 12.7214 1.47485 12.4617L42.9033 0.0866699C43.293 -0.0288086 43.7031 -0.0288086 44.0925 0.0866699ZM43.5 94.7759C59.8105 89.5249 82.8572 74.2952 82.8572 59.8125V15.9722L43.5 4.21582L4.14282 15.9722V59.8125C4.14282 74.2952 27.1897 89.5249 43.5 94.7759Z" fill="#FF7B03"/>
</svg>
