<svg width="114" height="114" viewBox="0 0 114 114" fill="none" xmlns="http://www.w3.org/2000/svg">
<path fill-rule="evenodd" clip-rule="evenodd" d="M48.5283 112H63.4576C65.7688 112 67.6482 110.12 67.6493 107.807V97.8481C71.0093 96.8892 74.2385 95.5173 77.2788 93.7563L84.3857 100.867C85.9619 102.458 88.7444 102.453 90.3123 100.872L100.876 90.3135C102.5 88.6814 102.5 86.0251 100.873 84.3916L93.5474 77.0623C95.1658 74.092 96.4209 70.936 97.2922 67.6553H107.8C110.116 67.6553 112 65.7756 112 63.4656V48.5361C112 46.2236 110.115 44.3442 107.8 44.3442H96.9578C96.0242 41.2151 94.7363 38.2039 93.1123 35.3628L100.871 27.6018C102.501 25.9768 102.502 23.3225 100.873 21.6821L90.311 11.1174C88.7361 9.54126 85.9675 9.54224 84.3916 11.1187L76.4946 19.0149C73.6879 17.4702 70.7223 16.2476 67.6493 15.3679V4.18384C67.6493 1.87598 65.7688 0 63.4576 0H48.5283C46.2172 0 44.3376 1.87598 44.3391 4.18408V15.2876C41.2312 16.1521 38.2332 17.3655 35.3934 18.908L27.5991 11.113C26.016 9.54395 23.2732 9.5415 21.6761 11.1201L11.1274 21.6821C10.3307 22.4778 9.89417 23.5325 9.89661 24.655C9.8988 25.7727 10.3374 26.8215 11.1262 27.6021L18.6906 35.167C17.0106 38.0688 15.683 41.1465 14.7299 44.3457H4.18237C1.87598 44.3457 0 46.2263 0 48.5376V63.4656C0 65.7771 1.87598 67.6555 4.18237 67.6553H14.3954C15.2855 71.0085 16.5758 74.2295 18.2476 77.2666L11.1263 84.3909C10.333 85.1819 9.89551 86.2344 9.89551 87.353C9.89417 88.4734 10.3318 89.5256 11.1251 90.3179L21.6748 100.872C23.259 102.459 26.0182 102.46 27.6049 100.873L34.6011 93.8772C37.6682 95.6262 40.9324 96.9856 44.3376 97.9302V107.809C44.3376 110.12 46.2183 112 48.5283 112ZM35.2402 90.1892L34.0631 89.4673L25.1311 98.4006C24.9539 98.5786 24.7474 98.6047 24.6412 98.6047C24.5338 98.6047 24.3285 98.5779 24.1511 98.4006L13.5991 87.8438C13.4219 87.6677 13.3961 87.4624 13.3961 87.3562C13.3961 87.2502 13.423 87.0461 13.6003 86.8687L22.6278 77.8381L21.9348 76.6689C19.8794 73.1992 18.3767 69.4458 17.4714 65.5129L17.1576 64.156H4.18225C3.80664 64.156 3.49988 63.8467 3.49988 63.4663V48.5371C3.49988 48.1545 3.80664 47.8455 4.18225 47.843H17.4021L17.7451 46.5398C18.7427 42.762 20.3 39.1545 22.3768 35.8188L23.1117 34.6382L13.5919 25.1189C13.4193 24.9487 13.3936 24.7493 13.3936 24.644C13.3936 24.5381 13.4204 24.334 13.5989 24.1553L24.1423 13.5977C24.3208 13.4214 24.5286 13.3948 24.6382 13.3948C24.7467 13.3948 24.9565 13.4214 25.1281 13.5918L34.811 23.2756L35.9767 22.593C39.2654 20.668 42.8051 19.2375 46.4996 18.3391L47.8367 18.0137V4.18359C47.8367 3.80664 48.1471 3.49976 48.5273 3.49976H63.4567C63.8445 3.49976 64.1477 3.80078 64.1464 4.18359V18.0745L65.4694 18.407C69.1279 19.3264 72.6348 20.7732 75.8931 22.7029L77.0623 23.396L86.8621 13.5957C87.0332 13.4229 87.241 13.3972 87.3496 13.3972C87.457 13.3972 87.6646 13.4241 87.8347 13.5945L98.3918 24.1543C98.6614 24.4241 98.6628 24.8604 98.3955 25.1274L88.6973 34.8274L89.4219 36.0049C91.438 39.2832 92.9568 42.8276 93.9368 46.5425L94.281 47.8457H107.801C108.187 47.8457 108.501 48.156 108.501 48.5376V63.4675C108.501 63.8484 108.187 64.1572 107.801 64.1572H94.5342L94.219 65.5129C93.3267 69.3796 91.8599 73.0688 89.8616 76.4768L89.178 77.6436L98.3955 86.8662C98.6665 87.137 98.665 87.5781 98.3992 87.8455L87.8333 98.4065C87.6628 98.5798 87.4585 98.6047 87.3538 98.6047C87.2476 98.6047 87.0435 98.5791 86.8672 98.4009L77.8059 89.3354L76.6252 90.0706C73.1567 92.2288 69.4048 93.8235 65.4735 94.811L64.1493 95.1433V107.81C64.1493 108.198 63.845 108.501 63.4576 108.501H48.5282C48.1479 108.501 47.8375 108.191 47.8375 107.81V95.2012L46.5006 94.8772C42.5166 93.9089 38.7286 92.3325 35.2402 90.1892ZM55.9983 81.6665C41.847 81.6665 30.3336 70.1536 30.3336 56.0024C30.3336 41.8501 41.847 30.3359 55.9983 30.3359C70.1495 30.3359 81.6616 41.8501 81.6616 56.0024C81.6616 70.1533 70.1495 81.6665 55.9983 81.6665ZM33.8334 56.002C33.8334 43.7783 43.7754 33.8357 55.9983 33.8357C68.2197 33.8357 78.1616 43.7786 78.1616 56.002C78.1616 68.2231 68.2197 78.166 55.9983 78.166C43.7754 78.166 33.8334 68.2231 33.8334 56.002Z" transform="translate(1 1)" fill="#FF7B03" stroke="#FF7B03"/>
</svg>
