<svg width="104" height="106" viewBox="0 0 104 106" fill="none" xmlns="http://www.w3.org/2000/svg">
<path fill-rule="evenodd" clip-rule="evenodd" d="M23.7251 96.9624C28.0176 98.1724 34.5117 100 47.1492 100C66.5142 100 75.1667 97.7249 76.0769 92.3872C76.6057 89.2754 76.3997 87.0095 75.342 85.0894C78.0078 83.9934 82.1958 81.4897 82.1958 76.5598C82.1958 73.0959 81.1379 70.9907 80.0496 69.7405C82.1558 68.3203 85 65.6038 85 61.2942C85 57.5896 83.4502 55.3237 82.0237 54.0239C83.4688 52.7368 85 50.3721 85 46.1304C85 39.7278 79.7297 37.4031 76.7595 37.0605H52.3547C51.8074 37.0605 51.4263 36.866 51.1555 36.4492C50.6113 35.6157 50.4177 33.6338 51.6567 30.7905C54.8423 23.4897 56.3921 17.9329 56.3921 13.8022C56.3921 7.10962 53.0803 0 46.9463 0C43.8159 0 43.4348 1.95093 43.0657 3.83716L42.8445 4.9209C42.2478 7.6189 38.9241 16.1331 32.925 23.894C26.5847 32.1025 23.0518 37.3105 17.053 46.5964C12.7852 53.1968 7.56396 56.543 1.53735 56.543C0.688721 56.543 0 57.2346 0 58.0867V94.4402C0 95.2922 0.688721 95.9836 1.53735 95.9836H18.9346C20.2537 95.9836 21.7112 96.3943 23.7251 96.9624ZM18.9346 92.8967H3.07788V59.5747C9.5564 59.0591 15.1157 55.2681 19.6357 48.2822C25.5854 39.0703 29.0845 33.9116 35.3572 25.7896C41.6758 17.6182 45.2058 8.49878 45.8484 5.59399L46.0852 4.43311C46.1897 3.89917 46.3188 3.23218 46.3342 3.14893C46.3372 3.14575 46.4788 3.08716 46.946 3.08716C51.343 3.08716 53.3171 9.354 53.3171 13.7993C53.3171 17.4946 51.8503 22.647 48.8401 29.5496C47.3489 32.9702 47.2537 36.0974 48.5818 38.1379C49.4275 39.4346 50.7649 40.1477 52.3547 40.1477L76.575 40.1384C76.7932 40.1631 81.9221 40.8391 81.9221 46.1304C81.9221 51.4773 78.884 52.4373 78.7795 52.4683C78.1277 52.6379 77.6633 53.209 77.6265 53.8821C77.5896 54.5552 77.9924 55.1724 78.6228 55.4102C78.6536 55.4226 81.9221 56.7036 81.9221 61.2974C81.9221 65.897 76.7317 68.0828 76.6794 68.1042C76.0923 68.345 75.7356 68.9255 75.7417 69.5583C75.7478 70.1912 76.1567 70.7654 76.7441 70.9907C76.8394 71.0278 79.1147 71.9631 79.1147 76.5659C79.1147 81.1812 72.5684 82.7834 72.5039 82.7988C71.9658 82.9253 71.5415 83.3298 71.3816 83.8577C71.2249 84.3855 71.3569 84.9597 71.7351 85.3611C72.999 86.7009 73.657 88.2568 73.042 91.8718C72.719 93.7549 68.9309 96.9131 47.1489 96.9131C34.936 96.9131 28.6909 95.1543 24.5586 93.9905L24.5554 93.9895C22.3877 93.3782 20.6748 92.8967 18.9346 92.8967Z" transform="translate(18 1)" fill="#FF7B03" stroke="#FF7B03"/>
<path fill-rule="evenodd" clip-rule="evenodd" d="M1.55127 56H18.4487C19.3081 56 20 55.3101 20 54.4597V1.54028C20 0.689941 19.3049 0 18.4487 0H1.55127C0.695068 0 0 0.689941 0 1.54028V54.4597C0 55.3101 0.695068 56 1.55127 56ZM16.8975 52.9197H3.10278V3.08057H16.8975V52.9197Z" transform="translate(1 49)" fill="#FF7B03" stroke="#FF7B03"/>
</svg>
