<svg width="100%" height="100%" viewBox="0 0 66 66" fill="none" xmlns="http://www.w3.org/2000/svg">
    <path fill-rule="evenodd" clip-rule="evenodd" d="M60.0631 29.7995C59.8578 27.3093 57.7441 25.4126 55.2463 25.4773H48.1801C46.9901 25.468 45.9218 24.7461 45.4692 23.6456C45.0166 22.545 45.2681 21.2804 46.1073 20.4367L51.1243 15.4314C52.9394 13.7116 53.0945 10.8732 51.4776 8.96581C50.6435 8.05286 49.4726 7.52023 48.2363 7.49133C47 7.46242 45.8055 7.93974 44.9296 8.81271L39.6181 14.0653C38.7806 14.9118 37.5144 15.1677 36.4138 14.713C35.3133 14.2583 34.5969 13.1833 34.6011 11.9925V4.82028C34.6657 2.32251 32.769 0.208745 30.2789 0.00344704C29.0481 -0.0445449 27.8507 0.410265 26.9622 1.26328C26.0736 2.1163 25.5703 3.29411 25.5681 4.52585V11.969C25.5849 13.1741 24.8656 14.2678 23.7524 14.7297C22.6392 15.1916 21.3569 14.9283 20.5157 14.0653L15.4633 8.98936C13.7434 7.1743 10.9051 7.0192 8.99769 8.63605C8.06602 9.47168 7.52117 10.6552 7.49218 11.9064C7.46319 13.1576 7.95263 14.3651 8.84459 15.243L14.1443 20.5427C14.9844 21.3767 15.238 22.6355 14.7864 23.7298C14.3347 24.8241 13.2671 25.5375 12.0833 25.5362H4.87571C2.37223 25.4379 0.229823 27.3164 0 29.8113C0 29.8819 0 29.9408 0 30.0115C0 30.0821 0 30.141 0 30.2117C0.205298 32.7018 2.31906 34.5985 4.81683 34.5339H12.0244C13.2169 34.5131 14.3021 35.2195 14.766 36.3182C15.2298 37.4169 14.9791 38.6873 14.1325 39.5273L8.83282 44.827C7.95985 45.703 7.48253 46.8974 7.51143 48.1338C7.54034 49.3701 8.07297 50.5409 8.98592 51.3751C10.8933 52.992 13.7317 52.8369 15.4515 51.0218L20.5039 45.9694C21.3461 45.1251 22.6143 44.8722 23.7159 45.3288C24.8175 45.7855 25.5349 46.8615 25.5327 48.054V55.4971C25.535 56.7288 26.0383 57.9066 26.9268 58.7596C27.8154 59.6127 29.0128 60.0675 30.2436 60.0195C32.7337 59.8142 34.6304 57.7004 34.5658 55.2027V48.0422C34.5616 46.8514 35.2779 45.7764 36.3785 45.3217C37.479 44.867 38.7453 45.123 39.5828 45.9694L44.8589 51.2456C45.7348 52.1185 46.9293 52.5958 48.1656 52.5669C49.402 52.538 50.5728 52.0054 51.407 51.0924C53.0238 49.185 52.8687 46.3467 51.0537 44.6268L46.0366 39.6098C45.1975 38.7661 44.946 37.5015 45.3985 36.4009C45.8511 35.3004 46.9195 34.5785 48.1094 34.5692H55.1757C57.7088 34.6717 59.8687 32.7512 60.0631 30.2235C60.0631 30.1528 60.0631 30.0821 60.0631 30.0115C60.0631 29.9408 60.0631 29.8701 60.0631 29.7995Z" transform="translate(3 3)" stroke="#F15F22" stroke-width="4.1"/>
</svg>

