<svg width="90" height="90" viewBox="0 0 90 90" fill="none" xmlns="http://www.w3.org/2000/svg">
<path fill-rule="evenodd" clip-rule="evenodd" d="M44 88C68.3005 88 88 68.3005 88 44C88 19.6995 68.3005 0 44 0C19.6995 0 0 19.6995 0 44C0 68.3005 19.6995 88 44 88Z" transform="translate(1 1)" stroke="#FF7B03" stroke-width="2"/>
<path d="M1.5 19.46V21.86H10.17V19.46H1.5ZM12.9802 15.26H15.5302C15.5102 14.62 15.5702 13.99 15.7102 13.37C15.8702 12.73 16.1202 12.16 16.4602 11.66C16.8002 11.16 17.2302 10.76 17.7502 10.46C18.2902 10.14 18.9302 9.98 19.6702 9.98C20.2302 9.98 20.7602 10.07 21.2602 10.25C21.7602 10.43 22.1902 10.69 22.5502 11.03C22.9302 11.37 23.2302 11.78 23.4502 12.26C23.6702 12.72 23.7802 13.24 23.7802 13.82C23.7802 14.56 23.6602 15.21 23.4202 15.77C23.2002 16.33 22.8602 16.85 22.4002 17.33C21.9602 17.81 21.4002 18.29 20.7202 18.77C20.0402 19.23 19.2502 19.74 18.3502 20.3C17.6102 20.74 16.9002 21.21 16.2202 21.71C15.5402 22.21 14.9302 22.79 14.3902 23.45C13.8502 24.11 13.4002 24.89 13.0402 25.79C12.7002 26.67 12.4802 27.74 12.3802 29H26.2702V26.75H15.3502C15.4702 26.09 15.7202 25.51 16.1002 25.01C16.5002 24.49 16.9702 24.01 17.5102 23.57C18.0702 23.13 18.6802 22.72 19.3402 22.34C20.0002 21.94 20.6602 21.54 21.3202 21.14C21.9802 20.72 22.6202 20.28 23.2402 19.82C23.8602 19.36 24.4102 18.85 24.8902 18.29C25.3702 17.71 25.7502 17.06 26.0302 16.34C26.3302 15.62 26.4802 14.79 26.4802 13.85C26.4802 12.85 26.3002 11.97 25.9402 11.21C25.6002 10.45 25.1302 9.82 24.5302 9.32C23.9302 8.8 23.2202 8.41 22.4002 8.15C21.6002 7.87 20.7402 7.73 19.8202 7.73C18.7002 7.73 17.7002 7.92 16.8202 8.3C15.9402 8.68 15.2002 9.21 14.6002 9.89C14.0202 10.55 13.5902 11.34 13.3102 12.26C13.0302 13.18 12.9202 14.18 12.9802 15.26ZM32.2901 18.53C32.2901 18.01 32.2901 17.44 32.2901 16.82C32.3101 16.18 32.3601 15.55 32.4401 14.93C32.5401 14.29 32.6701 13.67 32.8301 13.07C33.0101 12.47 33.2601 11.95 33.5801 11.51C33.9201 11.05 34.3401 10.68 34.8401 10.4C35.3401 10.12 35.9501 9.98 36.6701 9.98C37.3901 9.98 38.0001 10.12 38.5001 10.4C39.0001 10.68 39.4101 11.05 39.7301 11.51C40.0701 11.95 40.3201 12.47 40.4801 13.07C40.6601 13.67 40.7901 14.29 40.8701 14.93C40.9701 15.55 41.0201 16.18 41.0201 16.82C41.0401 17.44 41.0501 18.01 41.0501 18.53C41.0501 19.33 41.0201 20.23 40.9601 21.23C40.9201 22.21 40.7601 23.14 40.4801 24.02C40.2201 24.88 39.7901 25.61 39.1901 26.21C38.5901 26.81 37.7501 27.11 36.6701 27.11C35.5901 27.11 34.7501 26.81 34.1501 26.21C33.5501 25.61 33.1101 24.88 32.8301 24.02C32.5701 23.14 32.4101 22.21 32.3501 21.23C32.3101 20.23 32.2901 19.33 32.2901 18.53ZM29.5901 18.56C29.5901 19.34 29.6101 20.15 29.6501 20.99C29.6901 21.83 29.7901 22.65 29.9501 23.45C30.1101 24.25 30.3401 25.01 30.6401 25.73C30.9401 26.43 31.3501 27.05 31.8701 27.59C32.3901 28.13 33.0401 28.56 33.8201 28.88C34.6201 29.18 35.5701 29.33 36.6701 29.33C37.7901 29.33 38.7401 29.18 39.5201 28.88C40.3001 28.56 40.9501 28.13 41.4701 27.59C41.9901 27.05 42.4001 26.43 42.7001 25.73C43.0001 25.01 43.2301 24.25 43.3901 23.45C43.5501 22.65 43.6501 21.83 43.6901 20.99C43.7301 20.15 43.7501 19.34 43.7501 18.56C43.7501 17.78 43.7301 16.97 43.6901 16.13C43.6501 15.29 43.5501 14.47 43.3901 13.67C43.2301 12.87 43.0001 12.11 42.7001 11.39C42.4001 10.67 41.9901 10.04 41.4701 9.5C40.9501 8.96 40.2901 8.53 39.4901 8.21C38.7101 7.89 37.7701 7.73 36.6701 7.73C35.5701 7.73 34.6201 7.89 33.8201 8.21C33.0401 8.53 32.3901 8.96 31.8701 9.5C31.3501 10.04 30.9401 10.67 30.6401 11.39C30.3401 12.11 30.1101 12.87 29.9501 13.67C29.7901 14.47 29.6901 15.29 29.6501 16.13C29.6101 16.97 29.5901 17.78 29.5901 18.56ZM50.01 13.76C50.01 13.3 50.04 12.82 50.1 12.32C50.16 11.8 50.28 11.33 50.46 10.91C50.66 10.47 50.93 10.11 51.27 9.83C51.61 9.53 52.06 9.38 52.62 9.38C53.2 9.38 53.65 9.53 53.97 9.83C54.31 10.11 54.57 10.47 54.75 10.91C54.93 11.33 55.04 11.8 55.08 12.32C55.14 12.82 55.17 13.29 55.17 13.73C55.17 14.19 55.14 14.68 55.08 15.2C55.02 15.72 54.89 16.2 54.69 16.64C54.51 17.06 54.25 17.41 53.91 17.69C53.57 17.97 53.11 18.11 52.53 18.11C51.97 18.11 51.52 17.97 51.18 17.69C50.86 17.39 50.61 17.03 50.43 16.61C50.25 16.17 50.13 15.7 50.07 15.2C50.03 14.68 50.01 14.2 50.01 13.76ZM47.76 13.82C47.76 14.64 47.84 15.41 48 16.13C48.18 16.85 48.46 17.48 48.84 18.02C49.22 18.56 49.72 18.99 50.34 19.31C50.96 19.61 51.72 19.76 52.62 19.76C53.5 19.76 54.24 19.59 54.84 19.25C55.44 18.91 55.93 18.47 56.31 17.93C56.71 17.37 56.99 16.73 57.15 16.01C57.33 15.27 57.42 14.51 57.42 13.73C57.42 12.91 57.34 12.14 57.18 11.42C57.04 10.68 56.78 10.04 56.4 9.5C56.04 8.96 55.55 8.53 54.93 8.21C54.33 7.89 53.56 7.73 52.62 7.73C51.7 7.73 50.93 7.9 50.31 8.24C49.69 8.56 49.19 9 48.81 9.56C48.43 10.12 48.16 10.77 48 11.51C47.84 12.23 47.76 13 47.76 13.82ZM64.83 23.36C64.83 22.9 64.86 22.42 64.92 21.92C64.98 21.4 65.1 20.93 65.28 20.51C65.48 20.07 65.75 19.71 66.09 19.43C66.43 19.13 66.88 18.98 67.44 18.98C68.02 18.98 68.47 19.13 68.79 19.43C69.13 19.71 69.39 20.07 69.57 20.51C69.75 20.93 69.86 21.4 69.9 21.92C69.96 22.42 69.99 22.89 69.99 23.33C69.99 23.79 69.96 24.28 69.9 24.8C69.84 25.32 69.71 25.8 69.51 26.24C69.33 26.66 69.07 27.01 68.73 27.29C68.39 27.57 67.93 27.71 67.35 27.71C66.79 27.71 66.34 27.57 66 27.29C65.68 26.99 65.43 26.63 65.25 26.21C65.07 25.77 64.95 25.3 64.89 24.8C64.85 24.28 64.83 23.8 64.83 23.36ZM62.58 23.42C62.58 24.24 62.66 25.01 62.82 25.73C63 26.45 63.28 27.08 63.66 27.62C64.04 28.14 64.54 28.56 65.16 28.88C65.78 29.18 66.54 29.33 67.44 29.33C68.32 29.33 69.06 29.17 69.66 28.85C70.26 28.51 70.75 28.07 71.13 27.53C71.53 26.97 71.81 26.33 71.97 25.61C72.15 24.87 72.24 24.11 72.24 23.33C72.24 22.51 72.16 21.74 72 21.02C71.86 20.28 71.6 19.64 71.22 19.1C70.86 18.56 70.37 18.13 69.75 17.81C69.15 17.49 68.38 17.33 67.44 17.33C66.52 17.33 65.75 17.5 65.13 17.84C64.51 18.16 64.01 18.6 63.63 19.16C63.25 19.72 62.98 20.37 62.82 21.11C62.66 21.83 62.58 22.6 62.58 23.42ZM66.78 7.34L50.64 29.63H53.22L69.33 7.34H66.78Z" transform="translate(10 24.5)" fill="#FF7B03"/>
</svg>
