<svg width="86" height="92" viewBox="0 0 86 92" fill="none" xmlns="http://www.w3.org/2000/svg">
<path fill-rule="evenodd" clip-rule="evenodd" d="M36.8621 50.4907C38.8123 51.2651 40.906 51.6533 43.0005 51.6528C45.0947 51.6528 47.1887 51.2651 49.1392 50.4912C50.6479 49.8926 51.8955 49.1387 52.8464 48.2505C55.4927 45.7798 58.2454 40.4702 59.2373 38.4531C61.0125 38.3535 64.4717 37.3921 65.9641 31.6821C66.7166 28.8037 66.5461 26.4912 65.4578 24.8101C64.8579 23.8848 64.1023 23.3433 63.4814 23.0317C63.5342 20.2998 63.2009 12.7437 58.4004 7.05078C52.5212 0.0800781 43.386 0 43.0005 0C42.615 0 33.48 0.0800781 27.6008 7.05078C22.8003 12.7432 22.4663 20.2998 22.519 23.0317C21.8982 23.3433 21.1428 23.8848 20.5427 24.8101C19.4543 26.4912 19.2839 28.8037 20.0364 31.6821C21.5293 37.3931 24.9885 38.3535 26.7637 38.4531C27.7556 40.4702 30.5083 45.7798 33.1545 48.2505C34.105 49.1387 35.353 49.8926 36.8621 50.4907ZM84.6694 92H1.33105C0.595703 92 0 91.4038 0 90.668V74.7407C0 68.5957 3.68457 63.1509 9.38696 60.8691L29.1055 52.9771C29.4414 52.8428 29.8162 52.8511 30.1448 52.998C30.4739 53.146 30.7288 53.4214 30.8513 53.7607L36.6948 69.9238L38.6467 64.3081L36.9531 60.165C36.7854 59.7544 36.8323 59.2871 37.0798 58.9185C37.3269 58.5503 37.741 58.3296 38.1846 58.3296H47.8164C48.26 58.3296 48.6743 58.5503 48.9214 58.9185C49.1689 59.2866 49.2163 59.7544 49.0481 60.165L47.3542 64.3081L49.3062 69.9238L55.1499 53.7607C55.2722 53.4214 55.5273 53.1465 55.8564 52.998C56.186 52.8511 56.5608 52.8438 56.8958 52.9771L76.6135 60.8682C82.3154 63.1499 86 68.5952 86 74.7402V90.6675C86.0005 91.4038 85.4048 92 84.6694 92ZM2.66211 89.3364H83.3381V74.7407C83.3381 69.6909 80.3103 65.2173 75.6252 63.3423L57.1853 55.9619L50.5339 74.3604C50.3438 74.8877 49.8428 75.2393 49.2822 75.2393H49.2737C48.7097 75.2354 48.21 74.8774 48.0247 74.3447L44.6743 64.7075C44.5679 64.4009 44.5764 64.0659 44.7 63.7656L45.8335 60.9922H40.1672L41.3008 63.7656C41.4238 64.0654 41.4329 64.4004 41.3264 64.7075L37.9763 74.3447C37.791 74.8774 37.291 75.2354 36.7273 75.2393C36.1506 75.2554 35.6592 74.8906 35.4675 74.3604L28.8162 55.9619L10.3762 63.3423C5.69019 65.2178 2.6626 69.6914 2.6626 74.7407L2.66211 89.3364ZM57.4163 86.9111H72.7688C73.5042 86.9111 74.0999 86.3145 74.0999 85.5796V76.1235C74.0999 75.3877 73.5042 74.7915 72.7688 74.7915H57.4163C56.6809 74.7915 56.0852 75.3877 56.0852 76.1235V85.5796C56.0852 86.3149 56.6809 86.9111 57.4163 86.9111ZM58.7476 84.2476H71.4377V77.4551H58.7476V84.2476ZM27.5918 35.77C28.1013 35.77 28.5767 36.0645 28.7983 36.5405L28.8018 36.5479C28.9265 36.813 32.1577 43.6758 34.9719 46.3042C35.6785 46.9634 36.6448 47.5396 37.844 48.0151C41.1216 49.3169 44.8806 49.3169 48.1584 48.0151C49.3574 47.5396 50.3237 46.9634 51.031 46.3037C53.8447 43.6753 57.0771 36.811 57.2012 36.5479L57.2046 36.5405C57.4644 35.981 58.074 35.6738 58.6785 35.7969C59 35.8501 62.0286 36.2173 63.3899 31.0083C63.9373 28.9136 63.8809 27.271 63.2249 26.2588C62.6929 25.438 61.8987 25.2598 61.8906 25.2583C61.2058 25.144 60.7241 24.5225 60.7832 23.8306C60.7878 23.7798 61.0105 20.8931 60.271 17.2983C56.7771 17.626 46.6277 18.3311 41.5364 16.0762C38.092 14.5513 35.7212 12.7422 34.2871 11.4263C33.7686 12.9053 32.9131 14.793 31.6042 16.207C29.3625 18.6294 26.6509 19.9092 25.281 20.4438C25.1128 22.4424 25.217 23.7959 25.2202 23.8301C25.2783 24.5215 24.7964 25.1436 24.1128 25.2578C24.1016 25.2607 23.2876 25.4375 22.752 26.3008C22.1213 27.3159 22.074 28.9438 22.6135 31.0073C24.0239 36.4053 27.293 35.8032 27.3254 35.7964C27.4138 35.7788 27.5034 35.77 27.5918 35.77ZM29.6357 8.76855C34.7009 2.7627 42.9207 2.66406 43.0005 2.66357C43.0825 2.66357 51.2756 2.7334 56.3647 8.76855C57.8999 10.5884 58.9114 12.666 59.5759 14.6836C55.9292 15 46.8997 15.54 42.6123 13.6406C37.1841 11.2368 34.7317 8.05273 34.7104 8.02441C34.3953 7.60254 33.8638 7.40576 33.3489 7.52344C32.8362 7.63916 32.4395 8.04736 32.3374 8.56396C32.3298 8.60107 31.5769 12.3149 29.6497 14.3979C28.3782 15.7715 26.8975 16.7158 25.7271 17.3179C26.2903 14.5684 27.4165 11.3999 29.6357 8.76855Z" fill="#FF7B03"/>
</svg>
