<svg width="85" height="85" viewBox="0 0 85 85" fill="none" xmlns="http://www.w3.org/2000/svg">
<path fill-rule="evenodd" clip-rule="evenodd" d="M78.6853 0.0136719C80.6904 0.147949 82.6768 1.25 83.8691 2.89062C85.7627 5.49561 85.2517 8.89648 82.5356 11.7656C78.8462 15.6631 71.5635 24.3472 71.4902 24.4346C71.3792 24.5669 71.2415 24.6748 71.0854 24.7515L44.4402 37.8701C44.2649 37.9565 44.0732 38 43.8816 38C43.717 38 43.5522 37.9683 43.397 37.9038L18.3164 27.5054H1.24902C0.559326 27.5054 0 26.9546 0 26.2754C0 25.5962 0.559326 25.0454 1.24902 25.0454H18.5686C18.7351 25.0454 18.8999 25.0781 19.0535 25.1421L43.8372 35.417L69.7324 22.668C70.876 21.3066 77.2385 13.7544 80.7083 10.0889C81.4143 9.34277 83.5825 6.72217 81.8379 4.32178C80.7031 2.76074 77.8977 1.59961 76.3262 3.23779C72.5671 7.15576 63.6846 17.6528 63.4954 17.8765L63.4929 17.8794C63.2847 18.1255 62.9873 18.2822 62.6638 18.3154L59.0085 18.6943C58.9827 19.2441 58.886 19.7939 58.7151 20.3325C58.5098 20.9805 58.2029 21.5967 57.8049 22.1509C56.1829 24.4087 53.1807 25.4077 50.4976 24.5928L36.8882 20.9023C36.2231 20.7217 35.8325 20.0449 36.0159 19.3901C36.199 18.7349 36.8867 18.3511 37.5518 18.5308L51.1799 22.2266C52.2737 22.5215 53.4514 22.4536 54.4497 21.897C55.3418 21.3999 56.0251 20.5635 56.3306 19.6001C56.6553 18.5757 56.5554 17.4878 56.0493 16.5376C55.5432 15.5874 54.6917 14.8877 53.6514 14.5684C53.6094 14.5552 53.5681 14.54 53.5281 14.5229C53.3088 14.4297 31.5261 5.2041 22.5652 5.2041C15.3333 5.2041 10.1863 7.22266 7.14185 8.91553C3.83911 10.7529 2.22192 12.6172 2.20605 12.6357C1.76221 13.1538 0.975098 13.2217 0.44751 12.7866C-0.079834 12.3506 -0.151367 11.5786 0.289307 11.0581C0.57666 10.7183 7.49854 2.74463 22.5652 2.74463C31.8926 2.74463 52.9343 11.5933 54.4612 12.2402C54.9324 12.3901 55.3782 12.5903 55.7947 12.833C58.988 9.11084 63.0544 4.43457 65.3511 2.04053C66.406 0.940918 67.8884 0.396484 69.5259 0.505371C71.0681 0.608887 72.5974 1.28613 73.7649 2.33887C74.0291 2.05518 74.2788 1.79053 74.5105 1.54883C75.5654 0.449219 77.0486 -0.0957031 78.6853 0.0136719ZM58.6443 16.2593L61.8984 15.9219C63.2454 14.3335 68.3474 8.3335 72.095 4.16797C71.3398 3.47998 70.3359 3.02539 69.3567 2.95947C68.7361 2.91846 67.8506 3.01807 67.1672 3.72998C64.802 6.19531 60.3816 11.2983 57.6614 14.4688C58.0808 15.0112 58.4136 15.6157 58.6443 16.2593Z" transform="translate(0 47)" fill="#FF7B03"/>
<path d="M57.7507 25.4165H46.9044V11.2033C46.9044 10.5107 46.3399 9.94916 45.6432 9.94916C44.9465 9.94916 44.3819 10.5107 44.3819 11.2033V26.6706C44.3819 27.3632 44.9465 27.9248 45.6432 27.9248H54.3414L29.4999 49.0978L4.65844 27.9248H13.3566C14.0531 27.9248 14.6178 27.3632 14.6178 26.6706V2.50815H44.3821V5.43436C44.3821 6.12694 44.9467 6.68852 45.6434 6.68852C46.34 6.68852 46.9046 6.12694 46.9046 5.43436V1.25416C46.9046 0.561576 46.34 0 45.6434 0H13.3568C12.6603 0 12.0955 0.561576 12.0955 1.25416V25.4166H1.2493C0.105531 25.4166 -0.4421 26.8809 0.428438 27.6229L28.6792 51.7017C29.1458 52.0994 29.8542 52.0994 30.3208 51.7017L58.5715 27.6229C59.4421 26.8807 58.8946 25.4165 57.7507 25.4165Z" transform="translate(14)" fill="#FF7B03"/>
<path d="M18.6238 0.376055C18.1219 -0.125351 17.3089 -0.125351 16.8072 0.376055L0.366339 16.8085C-0.424869 17.5991 0.151487 19 1.27463 19C1.60332 19 1.93218 18.8748 2.18275 18.624L18.6236 2.19154C19.1254 1.69013 19.1254 0.87729 18.6238 0.376055Z" transform="translate(33 7)" fill="#FF7B03"/>
<path fill-rule="evenodd" clip-rule="evenodd" d="M0 3.5C0 1.57031 1.57007 0 3.5 0C5.42993 0 7 1.57031 7 3.5C7 5.42969 5.42993 7 3.5 7C1.57007 7 0 5.42969 0 3.5ZM2.23389 3.5C2.23389 4.19824 2.80176 4.76611 3.5 4.76611C4.198 4.76611 4.76587 4.19824 4.76587 3.5C4.76587 2.80176 4.198 2.23389 3.5 2.23389C2.80176 2.23389 2.23389 2.80176 2.23389 3.5Z" transform="translate(46 19)" fill="#FF7B03"/>
<path fill-rule="evenodd" clip-rule="evenodd" d="M0 3.5C0 1.57031 1.57007 0 3.5 0C5.42993 0 7 1.57031 7 3.5C7 5.42969 5.42993 7 3.5 7C1.57007 7 0 5.42969 0 3.5ZM2.23389 3.5C2.23389 4.19824 2.80176 4.76611 3.5 4.76611C4.198 4.76611 4.76587 4.19824 4.76587 3.5C4.76587 2.80176 4.198 2.23389 3.5 2.23389C2.80176 2.23389 2.23389 2.80176 2.23389 3.5Z" transform="translate(32 7)" fill="#FF7B03"/>
</svg>
